<svg id="Outline" xmlns="http://www.w3.org/2000/svg" width="40" height="40" viewBox="0 0 40 40">
  <defs>
    <style>
      .cls-1 {
        fill: none;
      }
    </style>
  </defs>
  <g>
    <g>
      <path d="M20,14a6,6,0,1,0,6,6A6.00657,6.00657,0,0,0,20,14Zm0,10a4,4,0,1,1,4-4A4.00458,4.00458,0,0,1,20,24Z"/>
      <path d="M35.36621,14.59814l-3-5.19628a.99933.99933,0,0,0-1.25488-.42139l-3.727,1.57275a11.87436,11.87436,0,0,0-2.8916-1.67187L23.99219,4.876A.99978.99978,0,0,0,23,4H17a.99978.99978,0,0,0-.99219.876l-.50049,4.00537a11.87436,11.87436,0,0,0-2.8916,1.67187l-3.727-1.57275a.99949.99949,0,0,0-1.25488.42139l-3,5.19628a1.00011,1.00011,0,0,0,.26269,1.29737L8.11914,18.335a11.69445,11.69445,0,0,0,0,3.33008L4.89648,24.10449a1.00011,1.00011,0,0,0-.26269,1.29737l3,5.19628a.99984.99984,0,0,0,1.25488.42139l3.72705-1.57275a11.87436,11.87436,0,0,0,2.8916,1.67187l.50049,4.00537A.99978.99978,0,0,0,17,36h6a.99978.99978,0,0,0,.99219-.876l.50049-4.00537a11.87436,11.87436,0,0,0,2.8916-1.67187l3.727,1.57275a.9995.9995,0,0,0,1.25488-.42139l3-5.19628a1.00011,1.00011,0,0,0-.26269-1.29737L31.88086,21.665a11.69445,11.69445,0,0,0,0-3.33008l3.22266-2.43945A1.00011,1.00011,0,0,0,35.36621,14.59814Zm-5.1748,2.50733a.99946.99946,0,0,0-.37842.98633,9.82889,9.82889,0,0,1,0,3.8164.99946.99946,0,0,0,.37842.98633l3.001,2.272-2.11718,3.667-3.47168-1.46485a.99887.99887,0,0,0-1.04541.16748,9.92366,9.92366,0,0,1-3.30762,1.91211,1.0006,1.0006,0,0,0-.667.82178L22.11719,34H17.88281l-.46631-3.73a1.0006,1.0006,0,0,0-.667-.82178,9.92366,9.92366,0,0,1-3.30762-1.91211,1.00126,1.00126,0,0,0-1.04541-.16748L8.9248,28.8335l-2.11718-3.667,3.001-2.272a.99946.99946,0,0,0,.37842-.98633,9.82889,9.82889,0,0,1,0-3.8164.99946.99946,0,0,0-.37842-.98633l-3.001-2.272,2.11718-3.667,3.47168,1.46485a1.00039,1.00039,0,0,0,1.04541-.16748,9.92366,9.92366,0,0,1,3.30762-1.91211,1.0006,1.0006,0,0,0,.667-.82178L17.88281,6h4.23438l.46631,3.73a1.0006,1.0006,0,0,0,.667.82178,9.92366,9.92366,0,0,1,3.30762,1.91211.99836.99836,0,0,0,1.04541.16748L31.0752,11.1665l2.11718,3.667Z"/>
    </g>
    <rect class="cls-1" width="40" height="40"/>
  </g>
</svg>
